<?xml version="1.0" encoding="utf-8"?>
<!-- Generator: Adobe Illustrator 19.2.1, SVG Export Plug-In . SVG Version: 6.00 Build 0)  -->
<svg version="1.1" id="layer" xmlns="http://www.w3.org/2000/svg" xmlns:xlink="http://www.w3.org/1999/xlink" x="0px" y="0px"
	 viewBox="0 0 652 652" style="enable-background:new 0 0 652 652;" xml:space="preserve">
<style type="text/css">
	.st0{fill:#009FE8;}
</style>
<path class="st0" d="M330.9,291.7v80.6c0,6.4-5,11.3-11.3,11.3s-11.4-5-11.4-11.3l0.1-80.6h-54.9c-18.9-0.4-34.2,14.8-34.2,33.7
	c0,18.9,15.3,33.8,34.5,34.3h21.1c6.1-0.1,11.1,5,11.1,11.3c0,6.3-5,11.3-11.3,11.4h-21c-30.9-0.6-55.9-26-55.9-56.9
	c0-30.9,25-55.9,55.8-56.4h101.3c6.5,0,11.3,5,11.3,11.3c0,6.3-5,11.3-11.3,11.4"/>
<path class="st0" d="M47.7,372.4c0,6.4-5.1,11.3-11.2,11.3c-6.1,0-11.4-5-11.4-11.4v-92c0-6.3,5.1-11.4,11.2-11.3h53.2
	c6.2-0.1,11.5,5,11.5,11.3c0,6.1-5.3,11.3-11.4,11.4H47.7 M63.3,313c-5.8-0.1-10.1,4.3-10.1,9.9c0,5.7,4.5,10,10,10h25.1
	c5.6-0.1,9.9-4.3,10-10c0.1-5.5-4.3-9.9-9.9-9.9H63.3z"/>
<g>
	<path class="st0" d="M151,344.1c5.5,0,10.2,4.4,10.2,9.9c0,5.7-4.7,9.9-10.2,9.9h-13.6c-5.5,0-10.2-4.3-10.2-9.9
		c0-5.5,4.7-10,10.2-9.9 M123.8,294.9l-35.2,72.4c-2.7,5.7-0.4,12.5,5.2,15.2c5.7,2.7,12.5,0.4,15.2-5.3l35.2-72.4l35.2,72.5
		c2.8,5.7,9.6,8,15.2,5.3c5.7-2.7,8-9.5,5.2-15.2l-35.2-72.5l-10.8-22.1c0,0-2.3-5.2-9.7-5.2c-7.4,0-9.7,5.2-9.7,5.2L123.8,294.9z"
		/>
</g>
<path class="st0" d="M446.9,353.9c0,15.7-12.7,28.5-28.4,28.5h-39.7c-6.3,0-11.4-5.1-11.4-11.4c0-6.3,5.1-11,11.4-11.3h37.6
	c3.6,0.3,6.5-2.2,6.5-5.8c0-2.2-1.1-4.1-2.7-5.3l-43.4-29.3c-2.6-2.3-9.4-6.6-9.4-20c0-16.6,13.5-30.1,30.1-30.1h32.7
	c6.3,0,11.4,5,11.4,11.3c0,6.3-5.1,11.3-11.4,11.2h-33.4c-3.7,0.1-6.7,3.1-6.7,6.8c0,2.2,0.7,3.1,2.1,4.5l44.2,30.7
	C443,338,446.9,344.2,446.9,353.9"/>
<path class="st0" d="M520.8,312.9c5.5-0.1,9.9,4.3,9.9,9.9c-0.1,5.7-4.3,9.9-10,10h-25.1c-5.5,0-10-4.3-10-10
	c0-5.5,4.2-9.9,10.1-9.9 M457.3,280.3c0-6.3,5.1-11.3,11.2-11.2h145.2c6.4,0,11.3,5,11.3,11.4c0,6.3-4.9,11.3-11.3,11.4h-23.6v80.6
	c0,6.4-5,11.3-11.3,11.3c-6.3,0-11.4-5-11.4-11.3l0.1-80.6l-87.6-0.1l0.1,67.9h41.7c6.3,0,11.4,5.1,11.4,11.4
	c0,6.3-5.1,11.4-11.4,11.4h-53.2c-6.3,0-11.4-5.1-11.4-11.4L457.3,280.3z"/>
</svg>
