<svg xmlns="http://www.w3.org/2000/svg" viewBox="0 0 38 42" fill="none">
    <rect width="45" height="45" fill="#17161D"></rect>
    <path
        d="M81.1211 9.88394C84.147 9.88394 86.5786 10.8076 88.4159 12.6549C90.2857 14.472 91.2196 17.0193 91.2177 20.2969V34.5932H84.9903V21.1432C84.9903 19.2393 84.5009 17.7883 83.5222 16.7901C82.5434 15.7636 81.2079 15.2503 79.5156 15.2503C77.8233 15.2503 76.4744 15.7636 75.4689 16.7901C74.4901 17.7864 74.0008 19.2374 74.0008 21.1432V34.6045H67.7877V21.1432C67.7877 19.2393 67.2983 17.7883 66.3195 16.7901C65.3408 15.7636 64.0052 15.2503 62.3129 15.2503C60.5958 15.2503 59.2317 15.7636 58.2205 16.7901C57.2436 17.7864 56.7552 19.2374 56.7552 21.1432V34.6045H50.5192V10.2462H56.7466V13.1927C57.5605 12.1566 58.6122 11.3271 59.8145 10.7727C61.1261 10.1798 62.5537 9.88016 63.9957 9.89526C65.7907 9.86582 67.5637 10.2896 69.1471 11.1265C70.6384 11.8975 71.8624 13.0922 72.6614 14.5569C73.4787 13.13 74.6792 11.9545 76.13 11.1604C77.6537 10.3142 79.3736 9.87436 81.1211 9.88394Z"
        fill="white"></path>
    <path
        d="M120.395 20.1046V34.599H114.122V31.5195C113.296 32.5978 112.215 33.4589 110.974 34.0272C109.663 34.6224 108.235 34.923 106.792 34.9075C105.011 34.9472 103.249 34.5433 101.667 33.7329C100.176 32.9009 98.9562 31.6645 98.1524 30.1694C97.3225 28.5844 96.9075 26.7069 96.9075 24.537V10.2407H103.135V23.6567C103.135 25.5927 103.624 27.089 104.603 28.1457C105.582 29.1703 106.917 29.6836 108.61 29.6854C110.327 29.6854 111.676 29.1722 112.656 28.1457C113.635 27.089 114.124 25.5927 114.124 23.6567L114.176 20.1159L120.395 20.1046Z"
        fill="white"></path>
    <path
        d="M132.228 29.5411H143.214V34.599H125.156V29.6288L135.92 15.2873H129.738V10.2407H143.08V15.2109L132.228 29.5411Z"
        fill="white"></path>
    <path
        d="M170.946 21.8886C170.953 22.6837 170.894 23.478 170.768 24.2633H152.738C152.887 26.0238 153.51 27.4022 154.607 28.3985C155.71 29.3968 157.162 29.9326 158.657 29.893C160.969 29.893 162.615 28.9108 163.593 26.9465H170.31C169.621 29.2659 168.193 31.3031 166.238 32.7545C164.219 34.2489 161.739 34.9961 158.797 34.9961C156.566 35.0279 154.363 34.496 152.398 33.4507C150.539 32.4062 149.014 30.8678 147.993 29.0099C146.926 26.9738 146.39 24.7055 146.437 22.4123C146.437 19.8894 146.956 17.6751 147.993 15.7693C148.983 13.9161 150.498 12.3886 152.352 11.3738C154.331 10.3207 156.551 9.79037 158.797 9.83404C160.983 9.79612 163.142 10.3105 165.07 11.3285C166.906 12.2947 168.409 13.7809 169.386 15.5967C170.453 17.5231 170.991 19.6925 170.946 21.8886ZM164.498 20.1281C164.513 19.4091 164.364 18.6959 164.064 18.041C163.763 17.3861 163.318 16.8062 162.761 16.3439C161.613 15.3678 160.138 14.85 158.625 14.8919C157.186 14.8557 155.787 15.3616 154.71 16.3071C153.674 17.2166 153.037 18.4922 152.799 20.1338L164.498 20.1281Z"
        fill="white"></path>
    <path
        d="M184.918 34.9969C183.051 35.0294 181.197 34.6696 179.481 33.9412C177.987 33.2833 176.681 32.2713 175.677 30.9947C174.776 29.8088 174.249 28.3859 174.163 26.9048H180.437C180.493 27.3657 180.645 27.8102 180.882 28.2109C181.119 28.6115 181.437 28.9598 181.816 29.2342C182.707 29.8705 183.786 30.1961 184.884 30.1598C186.069 30.1598 186.988 29.9248 187.643 29.455C187.954 29.2657 188.212 29.0006 188.391 28.685C188.57 28.3694 188.664 28.0138 188.664 27.6521C188.664 26.8595 188.249 26.2727 187.419 25.8916C186.177 25.3267 184.881 24.8849 183.55 24.5726C182.008 24.2226 180.492 23.7667 179.014 23.2083C177.849 22.733 176.813 21.9944 175.989 21.0516C175.155 20.0836 174.74 18.7788 174.744 17.1372C174.731 15.8177 175.131 14.5264 175.889 13.4407C176.755 12.2777 177.923 11.3681 179.269 10.8085C180.916 10.1314 182.688 9.80171 184.472 9.84046C187.408 9.84046 189.751 10.5735 191.5 12.0397C193.248 13.4775 194.212 15.4276 194.391 17.8901H188.433C188.405 17.4422 188.279 17.0056 188.063 16.6107C187.848 16.2158 187.548 15.872 187.185 15.6031C186.475 15.0182 185.512 14.7248 184.294 14.7229C183.167 14.7229 182.291 14.9295 181.67 15.3399C181.386 15.5272 181.156 15.783 181 16.0832C180.844 16.3834 180.768 16.7179 180.78 17.0551C180.78 17.8759 181.196 18.5061 182.028 18.9458C183.271 19.4981 184.567 19.9257 185.897 20.2223C187.395 20.5738 188.866 21.0297 190.298 21.5865C191.463 22.0609 192.489 22.8171 193.281 23.7858C194.139 24.7537 194.584 26.0444 194.614 27.6577C194.631 29.0126 194.21 30.3375 193.412 31.4391C192.561 32.6184 191.389 33.5342 190.032 34.0798C188.408 34.7261 186.668 35.0381 184.918 34.9969Z"
        fill="white"></path>
    <path d="M114.169 10.2407V18.4488H120.391V15.2845H127.737V10.2407H114.169Z" fill="#6F2FF6"></path>
    <path
        d="M10.1865 13.7646C12.0752 13.7646 13.6064 12.2503 13.6064 10.3823C13.6064 8.51431 12.0752 7 10.1865 7C8.29769 7 6.76654 8.51431 6.76654 10.3823C6.76654 12.2503 8.29769 13.7646 10.1865 13.7646Z"
        fill="white"></path>
    <path
        d="M25.9925 13.7646C27.8813 13.7646 29.4124 12.2503 29.4124 10.3823C29.4124 8.51431 27.8813 7 25.9925 7C24.1037 7 22.5726 8.51431 22.5726 10.3823C22.5726 12.2503 24.1037 13.7646 25.9925 13.7646Z"
        fill="#6F2FF6"></path>
    <path
        d="M11.4084 34.3358C7.89408 34.3358 5.27835 33.0386 3.56123 30.4441C2.79816 29.2023 2.3842 27.7816 2.36211 26.3287H7.51346C7.51346 27.7948 8.75836 29.1308 10.2093 29.6204C10.5991 29.7382 11.0038 29.8001 11.4113 29.8044C12.556 29.8044 13.5682 29.01 14.4477 27.4212C15.1346 26.0796 15.8787 24.0342 16.68 21.285C17.2161 19.1791 18.5717 17.6838 20.7467 16.7988C21.9898 16.3295 23.3112 16.0962 24.6417 16.111C28.4212 16.111 31.2096 17.3319 33.0069 19.7735C34.0744 21.1887 34.6095 23.5606 34.6095 25.3607H28.7313C28.7313 24.1408 28.3506 22.3548 27.3204 21.5595C26.6127 21.078 25.7725 20.8231 24.9135 20.8293C23.578 20.8293 22.4524 22.019 21.5366 24.3984C21.3458 24.889 21.0777 25.6522 20.7324 26.6882C20.4293 27.8124 20.0468 28.9143 19.5876 29.9855C18.3284 32.2499 16.4768 33.6235 14.0328 34.1066C13.1673 34.2646 12.2886 34.3414 11.4084 34.3358ZM7.5106 25.3607H2.35925C2.35925 22.6718 3.48396 19.7707 5.73624 18.1234C7.67086 16.3488 13.0912 15.9752 15.0144 16.6601V20.9991C13.2486 20.9991 8.32622 21.2821 7.71092 23.6115C7.57568 24.1851 7.50466 24.7717 7.49915 25.3607H7.5106Z"
        fill="white"></path>
    <path
        d="M21.7512 34.1123V29.5836C23.2422 29.5836 27.5637 29.1846 28.3335 27.9335C28.6234 27.45 28.7637 26.8931 28.737 26.3315H34.5895C34.5895 29.5667 33.3045 32.097 30.3225 33.3367C29.089 34.1123 23.2795 34.1123 21.7512 34.1123Z"
        fill="#6F2FF6"></path>
</svg>