<svg width="24" height="24" viewBox="0 0 24 24" fill="none" xmlns="http://www.w3.org/2000/svg">
    <g>
        <path
            d="M23.3997 21.8219C23.2093 21.2942 22.8821 20.863 22.5238 20.451C22.0661 19.9247 21.5618 19.4463 21.0593 18.9672C20.8659 18.7825 20.7833 18.5772 20.8003 18.313C20.8161 18.0723 20.8114 17.8312 20.7886 17.5907C20.7732 17.4258 20.7056 17.3135 20.5323 17.2801C20.3955 17.2535 20.2596 17.2198 20.1198 17.2239C20.0308 17.2263 19.991 17.1995 19.9856 17.0999C19.9695 16.7965 19.9378 16.494 19.923 16.1902C19.8859 15.4266 20.0381 14.6843 20.1663 13.9389C20.2556 13.4205 20.45 12.9604 20.7665 12.5419C21.0596 12.1544 21.326 11.7486 21.4548 11.2574C21.5879 10.7494 21.8382 10.272 21.9215 9.75323C22.0627 8.87386 22.0771 7.98312 21.9761 7.09479C21.8978 6.4059 21.7462 5.73251 21.3751 5.14489C20.9168 4.41914 20.4172 3.72232 19.8163 3.10921C19.2167 2.49747 18.5024 2.13064 17.6606 2.05004C16.6016 1.94877 15.5446 2.0156 14.489 2.12272C13.6429 2.20883 12.8245 2.42859 12.0104 2.6666C11.5557 2.79921 11.1027 2.93974 10.7259 3.26008C10.477 3.47191 10.2264 3.68134 9.98115 3.89799C9.22866 4.56243 8.79504 5.39978 8.66723 6.41107C8.64682 6.57261 8.64715 6.72555 8.67292 6.88606C8.73549 7.27459 8.58961 7.63144 8.49124 7.99483C8.39856 8.33652 8.38651 8.66857 8.56652 8.99372C8.63979 9.12599 8.69232 9.27858 8.71909 9.42841C8.77697 9.75633 8.80307 10.068 8.55079 10.3612C8.2045 10.7638 7.90036 11.2051 7.50187 11.5605C7.34996 11.6962 7.27134 11.8795 7.20576 12.071C7.13884 12.266 7.18401 12.4309 7.31249 12.5797C7.47811 12.7716 7.68321 12.9094 7.90404 13.0206C8.00475 13.0716 8.03486 13.1316 7.99772 13.2376C7.95255 13.3665 7.91608 13.4991 7.86857 13.6269C7.81203 13.7798 7.81169 13.9258 7.93616 14.0374C8.02616 14.118 8.01512 14.1714 7.94988 14.2624C7.74645 14.5458 7.74745 14.7019 7.93081 14.9953C8.11081 15.2833 8.15565 15.5726 7.95456 15.8751C7.86958 16.0025 7.81571 16.1486 7.77188 16.2977C7.71366 16.4958 7.73942 16.6752 7.84114 16.8578C8.02349 17.185 8.28413 17.4013 8.63745 17.4895C9.4612 17.6951 10.292 17.8529 11.1442 17.8529C11.2121 17.8532 11.2793 17.856 11.3279 17.9135C11.446 18.0537 11.3724 18.4467 11.2104 18.5321C10.9514 18.6682 10.6768 18.7632 10.399 18.8469C9.97044 18.9761 9.55756 19.1308 9.18651 19.4029C8.428 19.9595 7.71265 20.5699 7.00701 21.1937C6.7457 21.4248 6.48138 21.6531 6.28564 21.9962H17.4645C19.4048 21.9962 21.345 21.9945 23.2853 22C23.4469 22.0003 23.4502 21.9621 23.3997 21.8219ZM22.7965 21.6721C21.146 21.6721 19.4958 21.6711 17.8456 21.6742C17.7379 21.6745 17.6656 21.6401 17.5846 21.5646C16.714 20.751 15.8127 19.975 14.842 19.2885C14.4633 19.0205 14.0183 18.921 13.5897 18.7812C13.3772 18.7119 13.1701 18.6282 12.9713 18.5242C12.8278 18.4491 12.7582 18.0347 12.8663 17.9131C12.9151 17.858 12.9821 17.8525 13.0513 17.8529C13.9035 17.8549 14.7353 17.703 15.558 17.4891C15.9562 17.3858 16.2319 17.1278 16.4096 16.7503C16.4808 16.5987 16.4607 16.4482 16.4209 16.2977C16.3811 16.1482 16.3256 16.0018 16.2409 15.874C16.0398 15.5716 16.075 15.2706 16.269 14.9974C16.4581 14.7318 16.4229 14.498 16.2459 14.2613C16.1814 14.1752 16.1653 14.1191 16.2583 14.0395C16.3868 13.93 16.3935 13.7784 16.3282 13.631C16.2724 13.5046 16.2476 13.3689 16.1998 13.2411C16.1586 13.1305 16.1871 13.0716 16.2861 13.0234C16.4323 12.9521 16.5705 12.8643 16.6953 12.7582C17.0453 12.4609 17.1443 12.2825 16.8465 11.7489C16.7739 11.6187 16.6632 11.5171 16.5538 11.4207C16.1476 11.0621 15.8414 10.615 15.5256 10.18C15.3526 9.94164 15.4292 9.65161 15.4874 9.38398C15.5152 9.25653 15.5564 9.12599 15.6206 9.01508C15.8381 8.6386 15.7859 8.25592 15.6705 7.86773C15.6106 7.66485 15.5436 7.46369 15.5199 7.2522C15.5099 7.16127 15.5018 7.06827 15.5102 6.97768C15.5935 6.08006 15.3429 5.27853 14.8209 4.57173C14.3786 3.97274 13.8105 3.50567 13.2153 3.07649C13.0506 2.95834 12.8579 2.89255 12.6311 2.80817C13.0393 2.6821 13.4187 2.58772 13.8021 2.53295C14.8634 2.3814 15.9301 2.30562 17.0031 2.33834C17.7302 2.36073 18.4345 2.45752 19.0548 2.89807C19.3599 3.11507 19.6283 3.37133 19.8732 3.65481C20.3065 4.15701 20.7036 4.68953 21.0596 5.25132C21.4886 5.92884 21.6254 6.7004 21.691 7.48987C21.7472 8.16774 21.7047 8.84492 21.6395 9.51797C21.5976 9.94646 21.3852 10.335 21.2808 10.7497C21.1068 11.4424 20.7632 12.0369 20.3406 12.5904C19.992 13.0468 19.8993 13.5976 19.7979 14.1425C19.7236 14.5421 19.6775 14.9468 19.6246 15.3501C19.5329 16.0518 19.64 16.7469 19.6975 17.4433C19.7046 17.5294 19.7383 17.5608 19.8247 17.5522C19.9973 17.5346 20.169 17.5484 20.3409 17.5756C20.4437 17.5918 20.4848 17.6403 20.4841 17.7437C20.4825 17.9965 20.4868 18.249 20.4851 18.5015C20.4835 18.7319 20.5601 18.9234 20.7234 19.0846C21.1453 19.5014 21.5665 19.9195 21.9807 20.3446C22.3127 20.6849 22.6215 21.0469 22.8697 21.4589C22.9069 21.5202 22.938 21.5853 22.9845 21.6721H22.7965Z"
            fill="gray" />
        <path
            d="M7.97432 6.80943C7.9698 6.89175 7.85705 7.0216 8.04314 7.05467C8.0719 7.05984 8.05413 7.12769 8.05057 7.16661C8.03442 7.35088 7.98789 7.52861 7.93039 7.70083C7.75237 8.23436 7.74881 8.75307 8.00889 9.2618C8.05671 9.35583 8.09031 9.46364 8.10743 9.56938C8.142 9.77949 8.1349 9.96755 7.98596 10.158C7.66901 10.5631 7.36758 10.9802 6.99797 11.335C6.81317 11.5123 6.70914 11.7431 6.63224 11.9921C6.54533 12.2739 6.59993 12.5215 6.76858 12.7492C6.90751 12.9366 7.07939 13.083 7.27388 13.1973C7.35078 13.2424 7.37404 13.2869 7.33656 13.3733C7.22639 13.6272 7.17308 13.8834 7.3175 14.1459C7.34432 14.1944 7.30393 14.233 7.28551 14.2723C7.14659 14.5706 7.15337 14.8564 7.34464 15.1289C7.48227 15.3256 7.50198 15.5164 7.37565 15.7427C7.18342 16.0874 7.03383 16.4594 7.20604 16.8662C7.41216 17.3519 7.75657 17.677 8.24733 17.8162C8.98783 18.0266 9.74385 18.1313 10.506 18.195C10.5474 18.1988 10.589 18.1999 10.6465 18.203C10.6097 18.2853 10.5441 18.3011 10.4898 18.3252C10.2866 18.4162 10.0795 18.4961 9.86468 18.5508C9.23241 18.712 8.70707 19.0823 8.19854 19.4953C7.50521 20.0591 6.83998 20.6581 6.18994 21.2767C6.00773 21.4499 5.87042 21.6635 5.73828 21.8798C5.68626 21.9649 5.62875 22 5.52989 22C3.9148 21.9962 2.29971 21.9966 0.684627 21.9993C0.574133 21.9997 0.54861 21.9835 0.589964 21.8598C0.75829 21.3587 1.04551 20.9405 1.36924 20.5455C1.80508 20.0133 2.28388 19.5256 2.7782 19.0572C3.02988 18.8185 3.14877 18.5553 3.10968 18.1985C3.08739 17.9939 3.09643 17.7859 3.12293 17.5802C3.14296 17.4232 3.20531 17.3154 3.36524 17.283C3.49221 17.2575 3.61724 17.2193 3.74745 17.2268C3.84599 17.2327 3.88411 17.1989 3.89832 17.087C4.06019 15.8126 3.88992 14.5723 3.5788 13.3444C3.51353 13.0867 3.35975 12.888 3.22405 12.6758C3.16945 12.5908 3.11711 12.5029 3.05508 12.4244C2.67804 11.947 2.52652 11.3594 2.32944 10.7901C1.77212 9.17948 1.79312 7.55858 2.21894 5.9263C2.29422 5.63836 2.41732 5.36832 2.57207 5.11895C2.96397 4.48726 3.39076 3.88381 3.86666 3.31963C4.58261 2.4706 5.47658 2.04936 6.54307 2.01216C7.74623 1.97048 8.94293 2.03282 10.1303 2.24775C10.4369 2.3032 10.7386 2.38931 11.0426 2.4613C11.0442 2.47267 11.0459 2.48403 11.0475 2.4954C10.9793 2.5233 10.9108 2.55085 10.843 2.57979C10.2026 2.85223 9.72414 3.35924 9.2253 3.83972C8.51096 4.5279 8.16753 5.40862 8.0328 6.40162C8.01439 6.53768 7.98176 6.67269 7.97432 6.80943Z"
            fill="gray" />
    </g>
</svg>