<svg version="1.1" id="Layer_1" xmlns="http://www.w3.org/2000/svg" xmlns:xlink="http://www.w3.org/1999/xlink" x="0px" y="0px"
	 width="50px" height="50px" viewBox="0 0 1925 683" enable-background="new 0 0 1925 683" xml:space="preserve">
<path fill="#000000" opacity="1.000000" stroke="none" 
	d="
M649.000000,684.000000 
	C433.076416,684.000000 217.152847,684.000000 1.000000,684.000000 
	C1.000000,508.305359 1.000000,332.610626 1.372279,156.450134 
	C19.057673,147.673553 36.074635,138.659149 53.753708,131.217728 
	C79.900299,120.212189 106.298004,109.714417 132.990036,100.116272 
	C165.378433,88.469788 198.618851,79.564690 232.406525,72.859047 
	C247.882095,69.787704 263.347351,66.592468 278.923370,64.122337 
	C291.042786,62.200382 303.311859,61.159691 315.540710,60.006046 
	C331.246185,58.524429 346.964508,56.438667 362.701508,56.198116 
	C388.784698,55.799404 414.888000,56.619022 440.981079,57.034828 
	C446.748505,57.126732 452.543488,57.384350 458.265411,58.069618 
	C473.521790,59.896744 488.794281,61.686577 503.968872,64.073174 
	C521.169373,66.778397 538.464783,69.304581 555.372437,73.354935 
	C586.424744,80.793755 617.435608,88.609055 647.014343,101.009293 
	C670.417114,110.820381 693.907898,120.441261 717.082703,130.767944 
	C728.570068,135.886734 739.596680,142.119171 750.541321,148.357376 
	C766.369934,157.379364 782.187744,166.467819 797.538818,176.266312 
	C811.930969,185.452713 825.968567,195.250748 839.688232,205.419022 
	C854.122131,216.116562 868.238464,227.278885 882.043640,238.778290 
	C896.208923,250.577698 910.282410,262.559174 923.573242,275.318085 
	C939.848633,290.942047 955.299133,307.427277 971.035217,323.609222 
	C974.453003,327.123810 977.594421,330.909760 980.818359,334.609680 
	C985.388428,339.854492 989.916931,345.135468 995.295715,351.365326 
	C1031.196777,294.488708 1066.526123,238.518005 1102.608765,181.353806 
	C1100.310181,182.135162 1099.448608,182.220795 1098.848999,182.662399 
	C1087.203125,191.242081 1075.523560,199.778351 1063.983032,208.498367 
	C1050.686401,218.545319 1037.620117,228.899139 1024.256592,238.854965 
	C1015.958923,245.036743 1007.026123,250.387497 998.924683,256.801239 
	C995.583862,259.446075 994.249695,258.767334 991.695618,256.296570 
	C977.994568,243.042130 964.422974,229.630280 950.241577,216.902405 
	C934.598755,202.862991 918.669617,189.098862 902.265076,175.964386 
	C885.847717,162.819763 869.105347,149.991333 851.745300,138.137619 
	C832.020691,124.669312 811.899536,111.648209 791.132568,99.876076 
	C768.233887,86.895576 744.575256,75.210236 720.940002,63.586216 
	C691.755676,49.233074 661.120667,38.449387 630.014709,29.148340 
	C602.621033,20.957310 574.909973,13.857964 546.503845,10.014939 
	C527.871643,7.494212 509.188995,5.347279 490.542816,2.926342 
	C489.627258,2.807473 488.844574,1.665540 488.000000,0.999998 
	C967.231506,1.000000 1446.463013,1.000000 1926.000000,1.000000 
	C1926.000000,174.694580 1926.000000,348.389343 1925.767334,522.903992 
	C1923.918213,524.052734 1922.164429,524.083252 1920.706055,524.754944 
	C1897.124634,535.615173 1873.963867,547.503906 1849.926392,557.228027 
	C1822.934814,568.147156 1795.254028,577.405273 1767.682495,586.828552 
	C1754.797119,591.232483 1741.524780,594.563782 1728.316284,597.946106 
	C1714.283569,601.539612 1700.178833,604.907166 1685.994629,607.836914 
	C1672.680054,610.586975 1659.265137,612.941284 1645.811890,614.903687 
	C1633.683228,616.672791 1621.457520,617.831543 1609.248047,618.976685 
	C1593.387939,620.464172 1577.517944,622.489380 1561.622925,622.803711 
	C1539.207397,623.246887 1516.761353,622.484680 1494.335938,621.929932 
	C1484.964233,621.698059 1475.581665,620.959229 1466.258057,619.950073 
	C1449.833130,618.172485 1433.383789,616.433533 1417.067261,613.891479 
	C1400.357788,611.288208 1383.686401,608.222961 1367.191895,604.502319 
	C1336.628174,597.607971 1306.608521,588.670410 1277.299072,577.593689 
	C1246.122681,565.811462 1215.404541,552.882996 1186.246948,536.607727 
	C1167.929688,526.383301 1149.486206,516.299988 1131.794922,505.058563 
	C1103.007202,486.766327 1075.063477,467.182404 1049.290283,444.735901 
	C1031.024658,428.828064 1012.755798,412.899597 995.072632,396.355865 
	C982.710144,384.789978 971.189880,372.305542 959.567261,359.973328 
	C951.206909,351.102478 943.328186,341.778992 935.160095,332.724579 
	C933.700623,331.106720 931.877441,329.816925 929.963684,328.150482 
	C894.249146,384.737244 859.029297,440.540222 823.809448,496.343201 
	C824.185364,496.780487 824.561279,497.217743 824.937256,497.655029 
	C860.191040,471.528168 895.444885,445.401306 929.871277,419.887695 
	C951.855103,440.021759 973.430542,460.032104 995.307678,479.706848 
	C1005.423645,488.804352 1015.927490,497.502625 1026.621338,505.916962 
	C1037.912476,514.801392 1049.649048,523.119263 1061.174194,531.707214 
	C1085.556519,549.875793 1111.030518,566.398987 1137.606934,581.128052 
	C1156.231689,591.450195 1175.125854,601.347839 1194.313599,610.574158 
	C1211.144653,618.667236 1228.206421,626.539429 1245.786255,632.755371 
	C1271.737427,641.931396 1298.048706,650.236450 1324.571533,657.597107 
	C1342.499146,662.572327 1361.001465,665.578735 1379.348145,668.906372 
	C1391.544678,671.118530 1403.890137,672.627686 1416.223389,673.938843 
	C1431.551025,675.568298 1446.929077,677.685730 1462.295654,677.772095 
	C1488.819702,677.921143 1515.354980,676.777405 1541.878052,675.938110 
	C1550.749756,675.657349 1559.652710,675.055786 1568.445801,673.884033 
	C1583.476562,671.880981 1598.608887,670.104919 1613.379395,666.804749 
	C1638.542480,661.182678 1663.632324,655.066772 1688.432129,648.028076 
	C1717.020020,639.914368 1744.918823,629.557068 1771.673950,616.574890 
	C1796.542725,604.507935 1821.638062,592.632446 1845.326904,578.484558 
	C1870.295166,563.572571 1893.703735,546.051392 1917.830322,529.724182 
	C1920.428955,527.965454 1923.270874,526.566040 1926.000000,525.000000 
	C1926.000000,577.984253 1926.000000,630.968567 1926.000000,684.000000 
	C1511.971924,684.000000 1097.943970,684.000000 683.354370,683.588745 
	C683.466919,682.795776 684.104004,682.184692 684.820923,682.069397 
	C689.521790,681.312805 694.275757,680.834839 698.927246,679.859619 
	C700.102051,679.613281 701.862183,677.862183 701.829590,676.851746 
	C701.618652,670.307434 700.986084,663.776733 700.528015,657.721619 
	C688.811462,658.491150 677.338501,659.584412 665.844238,659.898254 
	C655.581360,660.178467 647.435059,655.285217 645.410706,647.516235 
	C643.640930,640.724487 642.223816,633.618591 642.195740,626.645264 
	C642.149231,615.097351 643.084717,603.521606 644.098572,592.000916 
	C644.902039,582.870422 651.656006,575.394531 660.057129,575.179810 
	C671.674255,574.882996 683.322144,575.702393 694.953430,576.135864 
	C696.794739,576.204529 698.617981,576.756958 700.690491,577.128967 
	C701.189575,569.353516 701.639282,562.346130 702.082031,555.448303 
	C699.873718,555.033936 698.415527,554.779541 696.965393,554.485229 
	C680.486084,551.141113 663.938049,548.285645 647.167664,552.074341 
	C637.691345,554.215088 629.228210,558.029053 623.871948,567.097534 
	C617.905334,577.199402 615.562439,588.380554 615.282776,599.578552 
	C614.878662,615.764282 615.190369,632.146606 617.301025,648.167847 
	C619.561707,665.328674 628.753357,678.150269 647.107910,682.076416 
	C647.842163,682.233521 648.373901,683.337341 649.000000,684.000000 
M854.223389,553.550293 
	C854.154602,554.042847 854.025696,554.535461 854.025513,555.028015 
	C854.011047,595.959045 853.999634,636.890137 854.042053,677.821106 
	C854.043152,678.826416 854.650879,679.831055 855.908630,680.961426 
	C864.495117,680.961426 873.081604,680.961426 882.121216,680.961426 
	C882.121216,662.998413 882.121216,645.754578 882.121216,628.392517 
	C897.623657,628.392517 912.649353,628.392517 928.144409,628.392517 
	C928.144409,646.024292 928.144409,663.268188 928.144409,680.589966 
	C937.653076,680.589966 946.683594,680.589966 955.695557,680.589966 
	C955.695557,637.955078 955.695557,595.730896 955.695557,553.403320 
	C946.356628,553.403320 937.326050,553.403320 927.832031,553.403320 
	C927.832031,570.713013 927.832031,587.623718 927.832031,604.584717 
	C912.330139,604.584717 897.304321,604.584717 881.809570,604.584717 
	C881.809570,587.262756 881.809570,570.352356 881.809570,553.164307 
	C872.551941,553.164307 863.763916,553.164307 854.223389,553.550293 
M206.790222,394.123901 
	C208.787598,394.081024 210.784973,394.000824 212.782349,394.000671 
	C292.110657,393.994354 371.438965,394.015808 450.767212,393.952759 
	C456.529510,393.948181 462.295929,393.401276 468.052612,392.995453 
	C486.868469,391.669006 501.072021,382.013214 511.807556,367.315033 
	C526.799316,346.789612 532.256714,322.888519 533.897644,298.040558 
	C534.778687,284.698120 533.633728,271.384583 531.050476,258.194580 
	C526.653198,235.742569 518.384216,215.317780 501.034729,199.572296 
	C491.039337,190.501038 479.209503,185.099350 465.672760,185.081268 
	C356.846558,184.935867 248.020035,184.999893 139.193604,184.999908 
	C137.250763,184.999908 135.307922,184.999908 133.319534,184.999908 
	C133.319534,289.602570 133.319534,393.654846 133.319534,497.630005 
	C157.695862,497.630005 181.752319,497.630005 206.121277,497.630005 
	C206.121277,463.113312 206.121277,428.961456 206.790222,394.123901 
M1364.500000,425.000000 
	C1341.080688,425.000000 1317.661377,425.000000 1293.757324,425.000000 
	C1293.757324,344.614410 1293.757324,264.901428 1293.757324,185.222794 
	C1268.995361,185.222794 1244.724365,185.222794 1220.231445,185.222794 
	C1220.231445,289.488098 1220.231445,393.530548 1220.231445,497.731079 
	C1324.850708,497.731079 1429.226562,497.731079 1533.690796,497.731079 
	C1533.690796,473.412323 1533.690796,449.359009 1533.690796,425.380402 
	C1533.077759,425.212585 1532.769653,425.054474 1532.461548,425.054321 
	C1476.807739,425.028839 1421.153809,425.014648 1364.500000,425.000000 
M621.001343,372.500000 
	C621.001343,414.252197 621.001343,456.004395 621.001343,497.607727 
	C645.741821,497.607727 669.797913,497.607727 693.746155,497.607727 
	C693.746155,422.619446 693.746155,348.018768 693.746155,273.298706 
	C669.436890,273.298706 645.381165,273.298706 621.001343,273.298706 
	C621.001343,306.230957 621.001343,338.865479 621.001343,372.500000 
M409.998962,599.353455 
	C409.998962,591.741699 409.998962,584.129944 409.998962,575.856323 
	C429.276459,575.856323 447.978638,575.856323 466.656525,575.856323 
	C466.656525,567.932922 466.656525,560.686462 466.656525,553.436768 
	C438.625183,553.436768 410.932739,553.436768 383.351776,553.436768 
	C383.351776,596.111877 383.351776,638.349548 383.351776,680.723755 
	C411.276947,680.723755 438.850891,680.723755 466.600494,680.723755 
	C466.600494,673.079407 466.600494,665.715393 466.600494,657.862488 
	C447.632904,657.862488 429.052277,657.862488 410.420105,657.862488 
	C410.420105,647.661926 410.420105,637.962341 410.420105,627.790039 
	C425.421539,627.790039 440.006439,627.790039 454.723999,627.790039 
	C454.723999,620.057190 454.723999,612.809753 454.723999,605.080811 
	C439.874390,605.080811 425.289215,605.080811 410.360870,605.080811 
	C410.218140,603.199524 410.108765,601.757812 409.998962,599.353455 
M209.500000,553.000366 
	C186.088791,553.000366 162.677582,553.000366 139.367706,553.000366 
	C139.367706,561.428955 139.367706,569.012085 139.367706,577.085449 
	C150.645844,577.085449 161.566772,577.085449 173.138565,577.085449 
	C173.138565,611.953247 173.138565,646.324402 173.138565,680.667847 
	C182.390793,680.667847 190.974930,680.667847 200.213623,680.667847 
	C200.213623,645.970093 200.213623,611.598816 200.213623,576.734863 
	C211.793015,576.734863 222.714447,576.734863 233.685791,576.734863 
	C233.685791,568.646606 233.685791,561.065918 233.685791,553.000366 
	C225.754211,553.000366 218.127090,553.000366 209.500000,553.000366 
M693.998169,238.311035 
	C693.998169,220.692673 693.998169,203.074295 693.998169,185.278198 
	C669.479004,185.278198 645.423035,185.278198 621.328186,185.278198 
	C621.328186,204.281540 621.328186,223.004608 621.328186,241.993515 
	C644.797668,241.993515 667.941345,242.026611 691.083862,241.878448 
	C692.059875,241.872208 693.025208,240.180542 693.998169,238.311035 
z"/>
<path fill="#9AA5B1" opacity="1.000000" stroke="none" 
	d="
M1926.000000,524.666626 
	C1923.270874,526.566040 1920.428955,527.965454 1917.830322,529.724182 
	C1893.703735,546.051392 1870.295166,563.572571 1845.326904,578.484558 
	C1821.638062,592.632446 1796.542725,604.507935 1771.673950,616.574890 
	C1744.918823,629.557068 1717.020020,639.914368 1688.432129,648.028076 
	C1663.632324,655.066772 1638.542480,661.182678 1613.379395,666.804749 
	C1598.608887,670.104919 1583.476562,671.880981 1568.445801,673.884033 
	C1559.652710,675.055786 1550.749756,675.657349 1541.878052,675.938110 
	C1515.354980,676.777405 1488.819702,677.921143 1462.295654,677.772095 
	C1446.929077,677.685730 1431.551025,675.568298 1416.223389,673.938843 
	C1403.890137,672.627686 1391.544678,671.118530 1379.348145,668.906372 
	C1361.001465,665.578735 1342.499146,662.572327 1324.571533,657.597107 
	C1298.048706,650.236450 1271.737427,641.931396 1245.786255,632.755371 
	C1228.206421,626.539429 1211.144653,618.667236 1194.313599,610.574158 
	C1175.125854,601.347839 1156.231689,591.450195 1137.606934,581.128052 
	C1111.030518,566.398987 1085.556519,549.875793 1061.174194,531.707214 
	C1049.649048,523.119263 1037.912476,514.801392 1026.621338,505.916962 
	C1015.927490,497.502625 1005.423645,488.804352 995.307678,479.706848 
	C973.430542,460.032104 951.855103,440.021759 929.871277,419.887695 
	C895.444885,445.401306 860.191040,471.528168 824.937256,497.655029 
	C824.561279,497.217743 824.185364,496.780487 823.809448,496.343201 
	C859.029297,440.540222 894.249146,384.737244 929.963684,328.150482 
	C931.877441,329.816925 933.700623,331.106720 935.160095,332.724579 
	C943.328186,341.778992 951.206909,351.102478 959.567261,359.973328 
	C971.189880,372.305542 982.710144,384.789978 995.072632,396.355865 
	C1012.755798,412.899597 1031.024658,428.828064 1049.290283,444.735901 
	C1075.063477,467.182404 1103.007202,486.766327 1131.794922,505.058563 
	C1149.486206,516.299988 1167.929688,526.383301 1186.246948,536.607727 
	C1215.404541,552.882996 1246.122681,565.811462 1277.299072,577.593689 
	C1306.608521,588.670410 1336.628174,597.607971 1367.191895,604.502319 
	C1383.686401,608.222961 1400.357788,611.288208 1417.067261,613.891479 
	C1433.383789,616.433533 1449.833130,618.172485 1466.258057,619.950073 
	C1475.581665,620.959229 1484.964233,621.698059 1494.335938,621.929932 
	C1516.761353,622.484680 1539.207397,623.246887 1561.622925,622.803711 
	C1577.517944,622.489380 1593.387939,620.464172 1609.248047,618.976685 
	C1621.457520,617.831543 1633.683228,616.672791 1645.811890,614.903687 
	C1659.265137,612.941284 1672.680054,610.586975 1685.994629,607.836914 
	C1700.178833,604.907166 1714.283569,601.539612 1728.316284,597.946106 
	C1741.524780,594.563782 1754.797119,591.232483 1767.682495,586.828552 
	C1795.254028,577.405273 1822.934814,568.147156 1849.926392,557.228027 
	C1873.963867,547.503906 1897.124634,535.615173 1920.706055,524.754944 
	C1922.164429,524.083252 1923.918213,524.052734 1925.767334,523.361938 
	C1926.000000,523.444458 1926.000000,523.888916 1926.000000,524.666626 
z"/>
<path fill="#9AA5B1" opacity="1.000000" stroke="none" 
	d="
M487.531342,0.999998 
	C488.844574,1.665540 489.627258,2.807473 490.542816,2.926342 
	C509.188995,5.347279 527.871643,7.494212 546.503845,10.014939 
	C574.909973,13.857964 602.621033,20.957310 630.014709,29.148340 
	C661.120667,38.449387 691.755676,49.233074 720.940002,63.586216 
	C744.575256,75.210236 768.233887,86.895576 791.132568,99.876076 
	C811.899536,111.648209 832.020691,124.669312 851.745300,138.137619 
	C869.105347,149.991333 885.847717,162.819763 902.265076,175.964386 
	C918.669617,189.098862 934.598755,202.862991 950.241577,216.902405 
	C964.422974,229.630280 977.994568,243.042130 991.695618,256.296570 
	C994.249695,258.767334 995.583862,259.446075 998.924683,256.801239 
	C1007.026123,250.387497 1015.958923,245.036743 1024.256592,238.854965 
	C1037.620117,228.899139 1050.686401,218.545319 1063.983032,208.498367 
	C1075.523560,199.778351 1087.203125,191.242081 1098.848999,182.662399 
	C1099.448608,182.220795 1100.310181,182.135162 1102.608765,181.353806 
	C1066.526123,238.518005 1031.196777,294.488708 995.295715,351.365326 
	C989.916931,345.135468 985.388428,339.854492 980.818359,334.609680 
	C977.594421,330.909760 974.453003,327.123810 971.035217,323.609222 
	C955.299133,307.427277 939.848633,290.942047 923.573242,275.318085 
	C910.282410,262.559174 896.208923,250.577698 882.043640,238.778290 
	C868.238464,227.278885 854.122131,216.116562 839.688232,205.419022 
	C825.968567,195.250748 811.930969,185.452713 797.538818,176.266312 
	C782.187744,166.467819 766.369934,157.379364 750.541321,148.357376 
	C739.596680,142.119171 728.570068,135.886734 717.082703,130.767944 
	C693.907898,120.441261 670.417114,110.820381 647.014343,101.009293 
	C617.435608,88.609055 586.424744,80.793755 555.372437,73.354935 
	C538.464783,69.304581 521.169373,66.778397 503.968872,64.073174 
	C488.794281,61.686577 473.521790,59.896744 458.265411,58.069618 
	C452.543488,57.384350 446.748505,57.126732 440.981079,57.034828 
	C414.888000,56.619022 388.784698,55.799404 362.701508,56.198116 
	C346.964508,56.438667 331.246185,58.524429 315.540710,60.006046 
	C303.311859,61.159691 291.042786,62.200382 278.923370,64.122337 
	C263.347351,66.592468 247.882095,69.787704 232.406525,72.859047 
	C198.618851,79.564690 165.378433,88.469788 132.990036,100.116272 
	C106.298004,109.714417 79.900299,120.212189 53.753708,131.217728 
	C36.074635,138.659149 19.057673,147.673553 1.372279,155.992188 
	C1.000000,155.555557 1.000000,155.111099 1.231588,154.673965 
	C22.583725,139.992981 43.494156,124.990379 64.877655,110.695427 
	C92.006706,92.559555 121.020569,77.752991 150.609558,64.087936 
	C181.146545,49.985069 212.439804,37.719692 244.860123,28.782475 
	C268.152618,22.361506 291.717407,16.635984 315.464294,12.240044 
	C338.088959,8.051845 361.109253,6.005156 383.942566,2.920361 
	C384.701019,2.817891 385.317413,1.663867 386.000000,1.000005 
	C419.687561,1.000000 453.375122,1.000000 487.531342,0.999998 
z"/>
<path fill="#000000" opacity="1.000000" stroke="none" 
	d="
M385.531342,1.000005 
	C385.317413,1.663867 384.701019,2.817891 383.942566,2.920361 
	C361.109253,6.005156 338.088959,8.051845 315.464294,12.240044 
	C291.717407,16.635984 268.152618,22.361506 244.860123,28.782475 
	C212.439804,37.719692 181.146545,49.985069 150.609558,64.087936 
	C121.020569,77.752991 92.006706,92.559555 64.877655,110.695427 
	C43.494156,124.990379 22.583725,139.992981 1.231588,154.340637 
	C1.000000,103.041489 1.000000,52.082973 1.000000,1.000000 
	C129.020874,1.000000 257.041779,1.000000 385.531342,1.000005 
z"/>
<path fill="#56AB2F" opacity="1.000000" stroke="none" 
	d="
M649.468628,684.000000 
	C648.373901,683.337341 647.842163,682.233521 647.107910,682.076416 
	C628.753357,678.150269 619.561707,665.328674 617.301025,648.167847 
	C615.190369,632.146606 614.878662,615.764282 615.282776,599.578552 
	C615.562439,588.380554 617.905334,577.199402 623.871948,567.097534 
	C629.228210,558.029053 637.691345,554.215088 647.167664,552.074341 
	C663.938049,548.285645 680.486084,551.141113 696.965393,554.485229 
	C698.415527,554.779541 699.873718,555.033936 702.082031,555.448303 
	C701.639282,562.346130 701.189575,569.353516 700.690491,577.128967 
	C698.617981,576.756958 696.794739,576.204529 694.953430,576.135864 
	C683.322144,575.702393 671.674255,574.882996 660.057129,575.179810 
	C651.656006,575.394531 644.902039,582.870422 644.098572,592.000916 
	C643.084717,603.521606 642.149231,615.097351 642.195740,626.645264 
	C642.223816,633.618591 643.640930,640.724487 645.410706,647.516235 
	C647.435059,655.285217 655.581360,660.178467 665.844238,659.898254 
	C677.338501,659.584412 688.811462,658.491150 700.528015,657.721619 
	C700.986084,663.776733 701.618652,670.307434 701.829590,676.851746 
	C701.862183,677.862183 700.102051,679.613281 698.927246,679.859619 
	C694.275757,680.834839 689.521790,681.312805 684.820923,682.069397 
	C684.104004,682.184692 683.466919,682.795776 682.896484,683.588745 
	C671.979126,684.000000 660.958191,684.000000 649.468628,684.000000 
z"/>
<path fill="#9AA5B1" opacity="1.000000" stroke="none" 
	d="
M206.455750,394.466736 
	C206.121277,428.961456 206.121277,463.113312 206.121277,497.630005 
	C181.752319,497.630005 157.695862,497.630005 133.319534,497.630005 
	C133.319534,393.654846 133.319534,289.602570 133.319534,184.999908 
	C135.307922,184.999908 137.250763,184.999908 139.193604,184.999908 
	C248.020035,184.999893 356.846558,184.935867 465.672760,185.081268 
	C479.209503,185.099350 491.039337,190.501038 501.034729,199.572296 
	C518.384216,215.317780 526.653198,235.742569 531.050476,258.194580 
	C533.633728,271.384583 534.778687,284.698120 533.897644,298.040558 
	C532.256714,322.888519 526.799316,346.789612 511.807556,367.315033 
	C501.072021,382.013214 486.868469,391.669006 468.052612,392.995453 
	C462.295929,393.401276 456.529510,393.948181 450.767212,393.952759 
	C371.438965,394.015808 292.110657,393.994354 212.782349,394.000671 
	C210.784973,394.000824 208.787598,394.081024 206.455750,394.466736 
M450.653412,313.836884 
	C451.436005,310.873657 452.816681,307.925903 452.893616,304.944458 
	C453.168579,294.287537 452.698792,283.607666 453.106354,272.959259 
	C453.383484,265.719269 445.113770,257.762054 437.765839,257.794281 
	C362.286072,258.125427 286.804352,257.996155 211.323151,257.995300 
	C209.701889,257.995300 208.080643,257.995300 206.267517,257.995300 
	C206.267517,279.174072 206.267517,299.894745 206.267517,320.999908 
	C208.321152,320.999908 210.121811,320.999939 211.922455,320.999939 
	C286.070648,320.999939 360.218842,320.980804 434.367004,321.034424 
	C440.653931,321.038971 445.903320,319.070557 450.653412,313.836884 
z"/>
<path fill="#9AA5B1" opacity="1.000000" stroke="none" 
	d="
M1365.000000,425.000000 
	C1421.153809,425.014648 1476.807739,425.028839 1532.461548,425.054321 
	C1532.769653,425.054474 1533.077759,425.212585 1533.690796,425.380402 
	C1533.690796,449.359009 1533.690796,473.412323 1533.690796,497.731079 
	C1429.226562,497.731079 1324.850708,497.731079 1220.231445,497.731079 
	C1220.231445,393.530548 1220.231445,289.488098 1220.231445,185.222794 
	C1244.724365,185.222794 1268.995361,185.222794 1293.757324,185.222794 
	C1293.757324,264.901428 1293.757324,344.614410 1293.757324,425.000000 
	C1317.661377,425.000000 1341.080688,425.000000 1365.000000,425.000000 
z"/>
<path fill="#9AA5B1" opacity="1.000000" stroke="none" 
	d="
M621.001343,372.000000 
	C621.001343,338.865479 621.001343,306.230957 621.001343,273.298706 
	C645.381165,273.298706 669.436890,273.298706 693.746155,273.298706 
	C693.746155,348.018768 693.746155,422.619446 693.746155,497.607727 
	C669.797913,497.607727 645.741821,497.607727 621.001343,497.607727 
	C621.001343,456.004395 621.001343,414.252197 621.001343,372.000000 
z"/>
<path fill="#56AB2F" opacity="1.000000" stroke="none" 
	d="
M854.975891,553.164307 
	C863.763916,553.164307 872.551941,553.164307 881.809570,553.164307 
	C881.809570,570.352356 881.809570,587.262756 881.809570,604.584717 
	C897.304321,604.584717 912.330139,604.584717 927.832031,604.584717 
	C927.832031,587.623718 927.832031,570.713013 927.832031,553.403320 
	C937.326050,553.403320 946.356628,553.403320 955.695557,553.403320 
	C955.695557,595.730896 955.695557,637.955078 955.695557,680.589966 
	C946.683594,680.589966 937.653076,680.589966 928.144409,680.589966 
	C928.144409,663.268188 928.144409,646.024292 928.144409,628.392517 
	C912.649353,628.392517 897.623657,628.392517 882.121216,628.392517 
	C882.121216,645.754578 882.121216,662.998413 882.121216,680.961426 
	C873.081604,680.961426 864.495117,680.961426 855.447693,680.440674 
	C854.983093,637.668091 854.979492,595.416199 854.975891,553.164307 
z"/>
<path fill="#56AB2F" opacity="1.000000" stroke="none" 
	d="
M409.999176,599.834839 
	C410.108765,601.757812 410.218140,603.199524 410.360870,605.080811 
	C425.289215,605.080811 439.874390,605.080811 454.723999,605.080811 
	C454.723999,612.809753 454.723999,620.057190 454.723999,627.790039 
	C440.006439,627.790039 425.421539,627.790039 410.420105,627.790039 
	C410.420105,637.962341 410.420105,647.661926 410.420105,657.862488 
	C429.052277,657.862488 447.632904,657.862488 466.600494,657.862488 
	C466.600494,665.715393 466.600494,673.079407 466.600494,680.723755 
	C438.850891,680.723755 411.276947,680.723755 383.351776,680.723755 
	C383.351776,638.349548 383.351776,596.111877 383.351776,553.436768 
	C410.932739,553.436768 438.625183,553.436768 466.656525,553.436768 
	C466.656525,560.686462 466.656525,567.932922 466.656525,575.856323 
	C447.978638,575.856323 429.276459,575.856323 409.998962,575.856323 
	C409.998962,584.129944 409.998962,591.741699 409.999176,599.834839 
z"/>
<path fill="#56AB2F" opacity="1.000000" stroke="none" 
	d="
M209.999985,553.000366 
	C218.127090,553.000366 225.754211,553.000366 233.685791,553.000366 
	C233.685791,561.065918 233.685791,568.646606 233.685791,576.734863 
	C222.714447,576.734863 211.793015,576.734863 200.213623,576.734863 
	C200.213623,611.598816 200.213623,645.970093 200.213623,680.667847 
	C190.974930,680.667847 182.390793,680.667847 173.138565,680.667847 
	C173.138565,646.324402 173.138565,611.953247 173.138565,577.085449 
	C161.566772,577.085449 150.645844,577.085449 139.367706,577.085449 
	C139.367706,569.012085 139.367706,561.428955 139.367706,553.000366 
	C162.677582,553.000366 186.088791,553.000366 209.999985,553.000366 
z"/>
<path fill="#9AA5B1" opacity="1.000000" stroke="none" 
	d="
M693.996826,238.792542 
	C693.025208,240.180542 692.059875,241.872208 691.083862,241.878448 
	C667.941345,242.026611 644.797668,241.993515 621.328186,241.993515 
	C621.328186,223.004608 621.328186,204.281540 621.328186,185.278198 
	C645.423035,185.278198 669.479004,185.278198 693.998169,185.278198 
	C693.998169,203.074295 693.998169,220.692673 693.996826,238.792542 
z"/>
<path fill="#60BF40" opacity="1.000000" stroke="none" 
	d="
M854.599609,553.357300 
	C854.979492,595.416199 854.983093,637.668091 854.981201,680.377930 
	C854.650879,679.831055 854.043152,678.826416 854.042053,677.821106 
	C853.999634,636.890137 854.011047,595.959045 854.025513,555.028015 
	C854.025696,554.535461 854.154602,554.042847 854.599609,553.357300 
z"/>
<path fill="#000000" opacity="1.000000" stroke="none" 
	d="
M450.373779,314.101624 
	C445.903320,319.070557 440.653931,321.038971 434.367004,321.034424 
	C360.218842,320.980804 286.070648,320.999939 211.922455,320.999939 
	C210.121811,320.999939 208.321152,320.999908 206.267517,320.999908 
	C206.267517,299.894745 206.267517,279.174072 206.267517,257.995300 
	C208.080643,257.995300 209.701889,257.995300 211.323151,257.995300 
	C286.804352,257.996155 362.286072,258.125427 437.765839,257.794281 
	C445.113770,257.762054 453.383484,265.719269 453.106354,272.959259 
	C452.698792,283.607666 453.168579,294.287537 452.893616,304.944458 
	C452.816681,307.925903 451.436005,310.873657 450.373779,314.101624 
z"/>
</svg>