<svg width="36" height="23" viewBox="0 0 36 23" fill="none" xmlns="http://www.w3.org/2000/svg">
    <path
        d="M27.6962 13.4064C26.6509 13.3482 25.6348 13.0399 24.7334 12.5074C23.832 11.9749 23.0717 11.2338 22.5162 10.3464C23.1862 5.00638 25.1362 3.34638 27.7162 3.34638C30.2962 3.34638 32.2562 5.34638 32.2562 8.34638C32.2562 11.3464 30.2562 13.3464 27.7162 13.3464M27.7162 0.00637554C25.8955 -0.0674049 24.1067 0.501088 22.6626 1.61248C21.2186 2.72386 20.211 4.30744 19.8162 6.08638C18.9602 4.29295 18.3126 2.40731 17.8862 0.466376H11.5162V8.36638C11.5162 11.2364 10.2162 13.3664 7.6662 13.3664C5.1162 13.3664 3.6662 11.2464 3.6662 8.36638V0.466376H0.00619683V8.36638C-0.0768679 10.5556 0.677692 12.6941 2.1162 14.3464C2.81833 15.1109 3.67604 15.7162 4.63163 16.1215C5.58722 16.5269 6.61853 16.7229 7.6562 16.6964C12.0662 16.6964 15.1562 13.3064 15.1562 8.45638V3.11638C15.9051 5.98988 17.1432 8.71299 18.8162 11.1664L16.8562 22.3464H20.5762L21.8662 14.4264C22.2932 14.7941 22.7479 15.1284 23.2262 15.4264C24.4689 16.2112 25.8974 16.6529 27.3662 16.7064H27.7062C28.7989 16.7177 29.8825 16.5079 30.8919 16.0895C31.9014 15.6711 32.8157 15.0527 33.5799 14.2717C34.3442 13.4907 34.9424 12.5631 35.3388 11.5448C35.7351 10.5265 35.9213 9.43853 35.8862 8.34638C35.9117 7.25824 35.7182 6.17609 35.3172 5.16423C34.9161 4.15237 34.3158 3.23147 33.5517 2.45626C32.7877 1.68104 31.8756 1.06734 30.8697 0.651634C29.8638 0.235925 28.7846 0.0266937 27.6962 0.0363757"
        fill="white" />
</svg>